<?xml version="1.0" encoding="utf-8"?>
<!-- Generator: Adobe Illustrator 22.0.1, SVG Export Plug-In . SVG Version: 6.00 Build 0)  -->
<svg version="1.1" id="Layer_1" focusable="false" xmlns="http://www.w3.org/2000/svg" xmlns:xlink="http://www.w3.org/1999/xlink"
	 x="0px" y="0px" viewBox="0 0 24 24" style="enable-background:new 0 0 24 24;" xml:space="preserve">
<path d="M8.3,10.1h7.5c0.4,0,0.7-0.3,0.7-0.7V8.6c0-0.4-0.3-0.7-0.7-0.7H8.3c-0.4,0-0.7,0.3-0.7,0.7v0.7C7.5,9.8,7.8,10.1,8.3,10.1z
	 M7.5,13.9c0,0.4,0.3,0.7,0.7,0.7h7.5c0.4,0,0.7-0.3,0.7-0.7v-0.7c0-0.4-0.3-0.7-0.7-0.7H8.3c-0.4,0-0.7,0.3-0.7,0.7V13.9z M12,19.6
	c-0.8,0-1.5-0.2-2.2-0.7L0,11.8v10C0,23,1,24,2.3,24h19.5c1.2,0,2.2-1,2.2-2.2v-10l-9.8,7.1C13.5,19.3,12.8,19.6,12,19.6L12,19.6z
	 M23.1,7.6c-0.4-0.3-0.8-0.6-1.4-1.1V4.5c0-1.2-1-2.2-2.2-2.2h-3.6c-0.1-0.1-0.3-0.2-0.4-0.3C14.7,1.4,13.1,0,12,0
	c-1.1,0-2.7,1.4-3.4,1.9C8.4,2.1,8.3,2.1,8.1,2.3H4.5c-1.2,0-2.2,1-2.2,2.2v2.1C1.7,7,1.3,7.3,0.9,7.6C0.3,8.1,0,8.7,0,9.4v0.5
	l4.5,3.3V4.5h15v8.7L24,9.9V9.4C24,8.7,23.7,8.1,23.1,7.6L23.1,7.6z"/>
</svg>
