<?xml version="1.0" encoding="utf-8"?>
<!-- Generator: Adobe Illustrator 22.0.1, SVG Export Plug-In . SVG Version: 6.00 Build 0)  -->
<svg version="1.1" id="Layer_1" focusable="false" xmlns="http://www.w3.org/2000/svg" xmlns:xlink="http://www.w3.org/1999/xlink"
	 x="0px" y="0px" viewBox="0 0 24 24" style="enable-background:new 0 0 24 24;" xml:space="preserve">
<path d="M8,19.1c0,0.1-0.1,0.2-0.3,0.2c-0.2,0-0.3-0.1-0.3-0.2C7.5,19,7.6,19,7.8,19C7.9,19,8,19,8,19.1z M6.5,18.9
	c0,0.1,0.1,0.2,0.2,0.2c0.1,0,0.3,0,0.3-0.1c0-0.1-0.1-0.2-0.2-0.3C6.7,18.8,6.6,18.8,6.5,18.9L6.5,18.9z M8.7,18.8
	c-0.1,0-0.2,0.1-0.2,0.2c0,0.1,0.1,0.2,0.3,0.1c0.1,0,0.2-0.1,0.2-0.2C8.9,18.9,8.8,18.8,8.7,18.8z M11.8,0.3C5.1,0.3,0,5.4,0,12.1
	c0,5.4,3.4,10,8.2,11.6C8.8,23.8,9,23.4,9,23.1c0-0.3,0-2,0-3c0,0-3.4,0.7-4.1-1.4c0,0-0.6-1.4-1.3-1.8c0,0-1.1-0.8,0.1-0.7
	c0,0,1.2,0.1,1.9,1.2c1.1,1.9,2.8,1.3,3.5,1c0.1-0.8,0.4-1.3,0.8-1.6c-2.7-0.3-5.4-0.7-5.4-5.3c0-1.3,0.4-2,1.1-2.9
	C5.4,8.3,5,7,5.7,5.3C6.7,5,9,6.6,9,6.6c1-0.3,2-0.4,3-0.4s2.1,0.1,3,0.4c0,0,2.3-1.6,3.3-1.3c0.7,1.7,0.3,3,0.1,3.3
	c0.8,0.9,1.2,1.5,1.2,2.9c0,4.7-2.9,5-5.6,5.3c0.4,0.4,0.8,1.1,0.8,2.2c0,1.6,0,3.6,0,4c0,0.3,0.2,0.7,0.8,0.6
	c4.8-1.6,8.1-6.2,8.1-11.6C24,5.4,18.6,0.3,11.8,0.3z M4.7,17c-0.1,0,0,0.2,0,0.3c0.1,0.1,0.2,0.1,0.3,0c0.1,0,0-0.2,0-0.3
	C4.9,17,4.8,16.9,4.7,17z M4.2,16.6c0,0.1,0,0.1,0.1,0.2c0.1,0,0.2,0,0.2,0c0-0.1,0-0.1-0.1-0.2C4.3,16.5,4.2,16.5,4.2,16.6z
	 M5.7,18.3c-0.1,0.1,0,0.2,0.1,0.3c0.1,0.1,0.3,0.1,0.3,0c0.1-0.1,0-0.2-0.1-0.3C6,18.3,5.8,18.2,5.7,18.3z M5.2,17.6
	c-0.1,0-0.1,0.2,0,0.3C5.3,18,5.4,18.1,5.5,18c0.1-0.1,0.1-0.2,0-0.3C5.4,17.6,5.3,17.5,5.2,17.6L5.2,17.6z"/>
</svg>
