<?xml version="1.0" encoding="utf-8"?>
<!-- Generator: Adobe Illustrator 22.0.1, SVG Export Plug-In . SVG Version: 6.00 Build 0)  -->
<svg version="1.1" id="Layer_1" xmlns="http://www.w3.org/2000/svg" xmlns:xlink="http://www.w3.org/1999/xlink" x="0px" y="0px"
	 viewBox="0 0 137 141.4" style="enable-background:new 0 0 137 141.4;" xml:space="preserve">
<style type="text/css">
	.st0{fill:#3B80FE;}
</style>
<g>
	<polygon class="st0" points="84.9,30.2 84.9,30.2 93.5,40.5 93.5,30.2 106.7,30.2 106.7,77.1 60.1,21.6 21.6,21.6 96.8,111.2 
		81,111.2 21.6,40.4 21.6,119.8 52.1,119.8 52.1,111.2 43.5,100.9 43.5,111.2 30.3,111.2 30.3,64.3 76.9,119.8 115.4,119.8 
		40.2,30.2 56,30.2 115.4,101 115.5,30.2 115.5,21.6 84.9,21.6 	"/>
	<path class="st0" d="M128.5,8.7v124.1H8.5V8.7H128.5 M137.2,0h-8.6H8.5h-8.6v8.6v124.1v8.6h8.6h120h8.6v-8.6V8.7V0L137.2,0z"/>
</g>
</svg>
