<?xml version="1.0" encoding="utf-8"?>
<!-- Generator: Adobe Illustrator 22.0.1, SVG Export Plug-In . SVG Version: 6.00 Build 0)  -->
<svg version="1.1" id="Layer_1" focusable="false" xmlns="http://www.w3.org/2000/svg" xmlns:xlink="http://www.w3.org/1999/xlink"
	 x="0px" y="0px" viewBox="0 0 24 24" style="enable-background:new 0 0 24 24;" xml:space="preserve">
<style type="text/css">
	.st0{fill:#3B80FE;}
</style>
<path class="st0" d="M12,0C5.4,0,0,5.4,0,12s5.4,12,12,12s12-5.4,12-12S18.6,0,12,0z M16,17.3c-0.2,0.2-0.4,0.4-0.5,0.5
	c-0.1,0.1-0.2,0.3-0.3,0.5c-0.1,0.3-0.1,0.6-0.2,0.8l-0.8,2.3c-0.7,0.1-1.4,0.2-2.1,0.2v-1.3c0.1-0.6-0.4-1.8-1.1-2.5
	c-0.3-0.3-0.5-0.7-0.5-1.1v-1.5c0-0.6-0.3-1.1-0.8-1.4C9,13.5,8,13,7.3,12.6c-0.6-0.3-1.1-0.6-1.5-1.1l0,0c-0.3-0.3-0.6-0.6-0.9-1
	C4.4,9.9,3.7,8.8,3.2,8c1-2.2,2.8-4,5-4.9l1.2,0.6C9.8,4,10.5,3.6,10.5,3V2.5c0.4-0.1,0.8-0.1,1.2-0.1L13,3.7c0.3,0.3,0.3,0.8,0,1.1
	L12.8,5l-0.5,0.5c-0.2,0.2-0.2,0.4,0,0.5l0.2,0.2c0.2,0.2,0.2,0.4,0,0.5l-0.4,0.4c-0.1,0.1-0.2,0.1-0.3,0.1h-0.4
	c-0.1,0-0.2,0-0.3,0.1l-0.5,0.5c-0.1,0.1-0.2,0.3-0.1,0.5l0.8,1.5c0.1,0.3-0.1,0.6-0.3,0.6h-0.3c-0.1,0-0.2,0-0.3-0.1L10,10
	C9.8,9.8,9.5,9.7,9.3,9.8l-1.5,0.5c-0.2,0.1-0.4,0.3-0.4,0.5c0,0.2,0.1,0.4,0.3,0.5l0.5,0.3c0.5,0.2,1,0.3,1.5,0.3s1.1,1.3,1.5,1.5
	h3.2c0.4,0,0.8,0.2,1.1,0.5l0.7,0.7c0.3,0.3,0.4,0.7,0.4,1C16.6,16.3,16.4,16.9,16,17.3z M20.2,12.9c-0.3-0.1-0.5-0.2-0.7-0.5
	l-0.9-1.3c-0.3-0.4-0.3-0.9,0-1.3l0.9-1.4C19.7,8.2,19.8,8.1,20,8l0.6-0.3c0.7,1.3,1,2.8,1,4.3c0,0.4,0,0.8-0.1,1.2L20.2,12.9z"/>
</svg>
